<?xml version="1.0" ?><!DOCTYPE svg  PUBLIC '-//W3C//DTD SVG 1.1//EN'  'http://www.w3.org/Graphics/SVG/1.1/DTD/svg11.dtd'><svg xmlns="http://www.w3.org/2000/svg" xmlns:xlink="http://www.w3.org/1999/xlink" xmlns:serif="http://www.serif.com/" width="100%" height="100%" viewBox="0 0 512 512" version="1.1" xml:space="preserve" style="fill-rule:evenodd;clip-rule:evenodd;stroke-linejoin:round;stroke-miterlimit:2;"><g transform="matrix(1,0,0,1,-1124,0)"><g id="Icons"><path d="M1178.27,51.435L1178.27,87.522L1158.03,87.522C1145.56,87.522 1135.43,97.648 1135.43,110.121L1135.43,478.401C1135.43,490.874 1145.56,501 1158.03,501L1601.97,501C1614.44,501 1624.57,490.874 1624.57,478.401L1624.57,110.121C1624.57,97.648 1614.44,87.522 1601.97,87.522L1582.12,87.522L1582.12,51.435L1604.35,51.435C1615.51,51.435 1624.57,42.376 1624.57,31.217C1624.57,20.059 1615.51,11 1604.35,11L1155.65,11C1144.49,11 1135.43,20.059 1135.43,31.217C1135.43,42.376 1144.49,51.435 1155.65,51.435L1178.27,51.435ZM1614.57,110.121L1614.57,478.401C1614.57,485.354 1608.92,491 1601.97,491C1601.97,491 1158.03,491 1158.03,491C1151.08,491 1145.43,485.354 1145.43,478.401C1145.43,478.401 1145.43,110.121 1145.43,110.121C1145.43,103.167 1151.08,97.522 1158.03,97.522L1601.97,97.522C1608.92,97.522 1614.57,103.167 1614.57,110.121ZM1380,136.691C1293.04,136.691 1222.43,207.296 1222.43,294.261C1222.43,381.226 1293.04,451.83 1380,451.83C1466.96,451.83 1537.57,381.226 1537.57,294.261C1537.57,207.296 1466.96,136.691 1380,136.691ZM1380,146.691C1461.45,146.691 1527.57,212.815 1527.57,294.261C1527.57,375.707 1461.45,441.83 1380,441.83C1298.55,441.83 1232.43,375.707 1232.43,294.261C1232.43,212.815 1298.55,146.691 1380,146.691ZM1327.68,290.314C1303.61,295.576 1285.56,317.037 1285.56,342.682C1285.56,372.267 1309.57,396.285 1339.16,396.285C1355.51,396.285 1370.17,388.947 1380,377.387C1389.83,388.947 1404.49,396.285 1420.84,396.285C1450.43,396.285 1474.44,372.267 1474.44,342.682C1474.44,317.037 1456.39,295.576 1432.32,290.314C1426.96,266.356 1405.56,248.428 1380,248.428C1354.44,248.428 1333.04,266.356 1327.68,290.314ZM1332.7,299.556C1334.87,299.233 1336.57,297.536 1336.9,295.369C1340.11,274.458 1358.2,258.428 1380,258.428C1401.8,258.428 1419.89,274.458 1423.1,295.369C1423.43,297.536 1425.13,299.233 1427.3,299.556C1448.31,302.681 1464.44,320.813 1464.44,342.682C1464.44,366.748 1444.91,386.285 1420.84,386.285C1405.48,386.285 1391.97,378.324 1384.2,366.311C1383.28,364.887 1381.7,364.026 1380,364.026C1378.3,364.026 1376.72,364.887 1375.8,366.311C1368.03,378.324 1354.52,386.285 1339.16,386.285C1315.09,386.285 1295.56,366.748 1295.56,342.682C1295.56,320.813 1311.69,302.681 1332.7,299.556ZM1296.24,230.762C1283.73,230.762 1273.57,240.918 1273.57,253.428C1273.57,265.938 1283.73,276.094 1296.24,276.094C1308.75,276.094 1318.9,265.938 1318.9,253.428C1318.9,240.918 1308.75,230.762 1296.24,230.762ZM1463.76,230.762C1451.26,230.762 1441.1,240.918 1441.1,253.428C1441.1,265.938 1451.26,276.094 1463.76,276.094C1476.27,276.094 1486.43,265.938 1486.43,253.428C1486.43,240.918 1476.27,230.762 1463.76,230.762ZM1296.24,240.762C1303.23,240.762 1308.9,246.437 1308.9,253.428C1308.9,260.419 1303.23,266.094 1296.24,266.094C1289.25,266.094 1283.57,260.419 1283.57,253.428C1283.57,246.437 1289.25,240.762 1296.24,240.762ZM1463.76,240.762C1470.76,240.762 1476.43,246.437 1476.43,253.428C1476.43,260.419 1470.76,266.094 1463.76,266.094C1456.77,266.094 1451.1,260.419 1451.1,253.428C1451.1,246.437 1456.77,240.762 1463.76,240.762ZM1345.96,192.236C1333.45,192.236 1323.29,202.393 1323.29,214.903C1323.29,227.412 1333.45,237.569 1345.96,237.569C1358.47,237.569 1368.62,227.412 1368.62,214.903C1368.62,202.393 1358.47,192.236 1345.96,192.236ZM1414.04,192.236C1401.53,192.236 1391.38,202.393 1391.38,214.903C1391.38,227.412 1401.53,237.569 1414.04,237.569C1426.55,237.569 1436.71,227.412 1436.71,214.903C1436.71,202.393 1426.55,192.236 1414.04,192.236ZM1345.96,202.236C1352.95,202.236 1358.62,207.912 1358.62,214.903C1358.62,221.893 1352.95,227.569 1345.96,227.569C1338.97,227.569 1333.29,221.893 1333.29,214.903C1333.29,207.912 1338.97,202.236 1345.96,202.236ZM1414.04,202.236C1421.03,202.236 1426.71,207.912 1426.71,214.903C1426.71,221.893 1421.03,227.569 1414.04,227.569C1407.05,227.569 1401.38,221.893 1401.38,214.903C1401.38,207.912 1407.05,202.236 1414.04,202.236ZM1188.27,51.435L1188.27,87.522L1208.71,87.522L1208.71,51.435L1188.27,51.435ZM1218.71,51.435L1218.71,87.522L1541.68,87.522L1541.68,51.435L1218.71,51.435ZM1551.68,51.435L1551.68,87.522L1572.12,87.522L1572.12,51.435L1551.68,51.435ZM1155.65,41.435L1604.35,41.435C1609.99,41.435 1614.57,36.857 1614.57,31.217C1614.57,25.578 1609.99,21 1604.35,21L1155.65,21C1150.01,21 1145.43,25.578 1145.43,31.217C1145.43,36.857 1150.01,41.435 1155.65,41.435Z"/></g></g></svg>