<?xml version="1.0" ?><svg xmlns="http://www.w3.org/2000/svg" xmlns:xlink="http://www.w3.org/1999/xlink" version="1.1" id="Layer_1" viewBox="0 0 100 100" style="enable-background:new 0 0 100 100;" xml:space="preserve"><style type="text/css">
	.st0{fill:#FFCACA;}
	.st1{fill:#333333;}
</style><g><path class="st0" d="M49.6,18.3c-6.2,0-10.2,4.6-10.2,4.6s-4-4.6-10.2-4.6s-11,6.2-11,11.9c0,11.8,21.2,25.2,21.2,25.2   S60.6,42,60.6,30.2C60.6,24.5,55.8,18.3,49.6,18.3z"/><g><path class="st1" d="M51.8,54.6c0,0.1,0,0.1,0.1,0.2c0.7,1.2,1.6,2.3,2.6,3.3c0.4,0.4,0.8,0.7,1.2,1c0.8,0.6,1.7,0.9,2.8,0.9h0.1    c0.4,0.1,0.8,0.1,1.2,0.1c0,0,0.1,0,0.1,0l0,0c0.4,0,0.8,0,1.1-0.1l0.1,0c1,0,1.9-0.4,2.7-1c0.4-0.3,0.8-0.6,1.1-1    c1-1,1.9-2.1,2.6-3.3c0-0.1,0.1-0.1,0.1-0.2l0.7-1.9c1.2-1.1,2-3,1.8-4.4c-0.1-0.4-0.2-0.8-0.4-1.1c0-1.1,0-2.6,0.1-3.1    c0,0,0-0.1,0-0.1c0-6.1-3.6-9.4-10.2-9.4c-1.8,0-2.5,0.4-3.2,0.8c-0.3,0.2-0.3,0.2-0.6,0.2c-3.9,0-6.2,3.2-6.2,8.5    c0,0.6,0.1,2.4,0.1,3.3c-0.2,0.3-0.3,0.6-0.3,0.9c-0.2,1.4,0.5,3.3,1.8,4.5L51.8,54.6z M66.7,51c-0.3,0.3-0.5,0.6-0.6,0.9    l-0.6,1.8c-0.6,1-1.3,1.9-2.1,2.7c-0.3,0.3-0.6,0.6-0.9,0.8c-0.4,0.3-1,0.5-1.5,0.5h-0.2c-0.1,0-0.1,0-0.2,0    c-0.3,0.1-0.6,0.1-0.9,0.1l0,0c-0.3,0-0.6,0-0.9-0.1c-0.1,0-0.1,0-0.2,0l-0.1,0c-0.5,0-1.1-0.2-1.5-0.5c-0.3-0.3-0.7-0.5-1-0.8    c-0.8-0.8-1.6-1.7-2.1-2.6L53.3,52c-0.1-0.4-0.3-0.7-0.6-1c-0.6-0.5-1.1-1.6-1.1-2.3c0.5,0,1-0.1,1.5-0.6c1-1,1.7-2.3,2.1-3.6    c0.1-0.3,0.2-0.6,0.3-0.9c2.9,2,6.5,3,10.1,2.7c0.2,0.4,0.4,0.8,0.6,1.2c0.3,0.6,1,1,1.6,1C67.9,49.3,67.4,50.4,66.7,51z     M55.8,37.8c0.9,0,1.4-0.3,1.8-0.5c0.4-0.2,0.7-0.4,2-0.4c5.3,0,7.9,2.3,7.9,7.1c0,0.2,0,0.5-0.1,0.9c-0.1-0.1-0.2-0.3-0.3-0.4    c-0.3-0.2-0.7-0.3-1-0.3c-3.5,0.4-7.2-0.6-10-2.8c-0.4-0.3-0.9-0.4-1.2-0.3c-0.6,0.1-1,0.5-1.2,1c0,0.1,0,0.1,0,0.2    c-0.1,0.6-0.2,1.1-0.4,1.7c-0.2,0.7-0.6,1.5-1.1,2.1c0-0.8-0.1-1.7-0.1-2C51.9,41.6,52.4,37.8,55.8,37.8z"/><path class="st1" d="M80,67.1c0,0,0-0.1,0-0.1c-0.5-1.4-1.5-2.6-2.9-3.2l-11.7-4.7c-0.5-0.2-1.1,0-1.4,0.4l-3.9,6    c0,0.1-0.1,0.1-0.2,0.2c-0.3,0.2-0.6,0.1-0.8-0.2l-3.9-6C55,59,54.5,58.9,54,59.1l-11.7,4.7c-1.4,0.6-2.4,1.8-2.9,3.3    c-1,4.4-1.8,8.9-2.1,13.3c0,0.3,0.1,0.6,0.3,0.9c0.2,0.2,0.5,0.4,0.8,0.4H81c0.3,0,0.6-0.1,0.8-0.4c0.2-0.2,0.3-0.5,0.3-0.9    C81.8,75.9,81.1,71.4,80,67.1z M39.5,79.4c0.4-4,1-7.9,1.9-11.7c0.3-0.8,0.9-1.5,1.6-1.8l10.8-4.4l3.4,5.2    c0.8,1.3,2.6,1.7,3.9,0.9c0.3-0.2,0.6-0.5,0.9-0.9l3.4-5.2l10.8,4.4c0.8,0.3,1.4,1,1.6,1.8c0.9,3.8,1.5,7.8,1.9,11.7H39.5z"/><path class="st1" d="M34.1,29H31v-3.1c0-0.6-0.5-1.1-1.1-1.1s-1.1,0.5-1.1,1.1V29h-3.1c-0.6,0-1.1,0.5-1.1,1.1s0.5,1.1,1.1,1.1    h3.1v3.1c0,0.6,0.5,1.1,1.1,1.1S31,35,31,34.4v-3.1h3.1c0.6,0,1.1-0.5,1.1-1.1S34.7,29,34.1,29z"/></g></g></svg>