<?xml version="1.0" ?><svg xmlns="http://www.w3.org/2000/svg" xmlns:xlink="http://www.w3.org/1999/xlink" version="1.1" id="Layer_1" viewBox="0 0 100 100" style="enable-background:new 0 0 100 100;" xml:space="preserve"><style type="text/css">
	.st0{fill:#FFCACA;}
	.st1{fill:#333333;}
</style><g><path class="st0" d="M23.9,49.6h20.6c2.8,0,5.1-2.3,5.1-5.1V23.9c0-2.8-2.3-5.1-5.1-5.1H23.9c-2.8,0-5.1,2.3-5.1,5.1v20.6   C18.8,47.4,21.1,49.6,23.9,49.6z"/><g><path class="st1" d="M32.7,27.2h10.4c0.6,0,1.1-0.5,1.1-1.1S43.7,25,43.1,25H32.7c-0.6,0-1.1,0.5-1.1,1.1S32.1,27.2,32.7,27.2z"/><path class="st1" d="M44.2,34.2c0-0.6-0.5-1.1-1.1-1.1H32.7c-0.6,0-1.1,0.5-1.1,1.1s0.5,1.1,1.1,1.1h10.4    C43.7,35.4,44.2,34.9,44.2,34.2z"/><path class="st1" d="M27.9,25h-2.5c-0.6,0-1.1,0.5-1.1,1.1s0.5,1.1,1.1,1.1h2.5c0.6,0,1.1-0.5,1.1-1.1S28.5,25,27.9,25z"/><path class="st1" d="M27.9,33.1h-2.5c-0.6,0-1.1,0.5-1.1,1.1s0.5,1.1,1.1,1.1h2.5c0.6,0,1.1-0.5,1.1-1.1S28.5,33.1,27.9,33.1z"/><path class="st1" d="M81.1,50.5c0-0.1,0-0.2,0-0.3l-2.8-9.1c-0.1-0.5-0.6-0.8-1.1-0.8h-36c-0.5,0-0.9,0.3-1.1,0.8l-2.8,9.1    c0,0.1,0,0.2,0,0.3c0,0,0,0,0,0v4.6c0,2.3,1.6,4.3,3.7,5V80c0,0.6,0.5,1.1,1.1,1.1h12.8h8.7h12.8c0.6,0,1.1-0.5,1.1-1.1V60.1    c2.1-0.7,3.7-2.7,3.7-5L81.1,50.5C81.2,50.5,81.1,50.5,81.1,50.5z M42,42.5h34.4l2.1,6.9h-6.8h-8.3h-8.3h-8.3h-6.8L42,42.5z     M70.6,55.1c0,1.7-1.4,3-3,3s-3-1.4-3-3v-3.5h6.1V55.1z M62.3,55.1c0,1.7-1.4,3-3,3c-1.7,0-3-1.4-3-3v-3.5h6.1V55.1z M54,55.1    c0,1.7-1.4,3-3,3s-3-1.4-3-3v-3.5H54V55.1z M39.5,55.1v-3.5h6.1v3.5c0,1.7-1.4,3-3,3h0C40.9,58.2,39.5,56.8,39.5,55.1z M56,78.9    V67.2h6.5v11.7H56z M64.7,78.9V66.1c0-0.6-0.5-1.1-1.1-1.1h-8.7c-0.6,0-1.1,0.5-1.1,1.1v12.8H43.2V60.3c1.4-0.2,2.7-0.9,3.5-2    c1,1.3,2.5,2.1,4.2,2.1c1.7,0,3.2-0.8,4.2-2.1c1,1.3,2.5,2.1,4.2,2.1c1.7,0,3.2-0.8,4.2-2.1c1,1.3,2.5,2.1,4.2,2.1    c1.7,0,3.2-0.8,4.2-2.1c0.8,1.1,2.1,1.8,3.5,2v18.6H64.7z M78.9,55.1c0,1.7-1.4,3-3,3s-3-1.4-3-3v-3.5h6.1V55.1z"/></g></g></svg>