<?xml version="1.0" ?><svg xmlns="http://www.w3.org/2000/svg" xmlns:xlink="http://www.w3.org/1999/xlink" version="1.1" id="Layer_1" viewBox="0 0 100 100" style="enable-background:new 0 0 100 100;" xml:space="preserve"><style type="text/css">
	.st0{fill:#FFCACA;}
	.st1{fill:#333333;}
</style><g><path class="st0" d="M25,21.1h22.6c2.7,0,4.8,2.2,4.8,4.8v12.9c0,2.7-2.2,4.8-4.8,4.8H25c-2.7,0-4.8-2.2-4.8-4.8V25.9   C20.2,23.2,22.3,21.1,25,21.1z"/><g><circle class="st1" cx="27.2" cy="31.6" r="1.6"/><circle class="st1" cx="36.9" cy="31.6" r="2.7"/><path class="st1" d="M45.5,33.3c0.9,0,1.6-0.8,1.6-1.6c0-0.9-0.8-1.6-1.6-1.6c-0.9,0-1.6,0.8-1.6,1.6    C43.9,32.5,44.6,33.3,45.5,33.3z"/><path class="st1" d="M68.6,47.7H23.4c-1.2,0-2.2,1-2.2,2.2v26.9c0,1.2,0.9,2.2,2.2,2.2h45.2c1.2,0,2.2-0.9,2.2-2.2V49.8    C70.8,48.6,69.9,47.7,68.6,47.7z M68.6,76.8H23.4l0-26.9l45.2,0L68.6,76.8z"/><path class="st1" d="M79.7,60.8l-4.1-15.1c0,0,0,0,0-0.1c0-0.1-0.1-0.2-0.2-0.3c0,0,0,0,0,0l-1.5-5.5c0-0.1,0-0.3,0-0.4    c0-0.1-0.1-0.3-0.2-0.4l-1.4-5.4c-0.2-0.8-0.7-1.5-1.4-2c-0.8-0.5-1.7-0.6-2.5-0.4L27.5,42.1c-0.8,0.3-1.5,0.9-1.9,1.7    c-0.4,0.8-0.3,1.7,0.1,2.5c0.3,0.5,0.9,0.7,1.4,0.5c0.5-0.3,0.7-0.9,0.5-1.4c-0.1-0.3-0.1-0.5,0-0.7c0.1-0.2,0.3-0.4,0.5-0.5    l40.8-10.8c0.4-0.1,0.7,0,0.8,0.1c0.2,0.1,0.4,0.3,0.4,0.6l1.3,4.8l-18.2,4.8c-0.6,0.2-0.9,0.7-0.8,1.3c0.2,0.6,0.7,0.9,1.3,0.8    L72,41l1.2,4.3l-1.7,0.6c-0.6,0.2-0.8,0.8-0.6,1.4c0.2,0.6,0.8,0.9,1.4,0.6l1.6-0.6l3.8,13.9c0.2,0.6-0.3,1.2-0.8,1.4l-4,1.1    c-0.6,0.2-0.9,0.7-0.8,1.3c0.1,0.5,0.6,0.8,1,0.8c0.1,0,0.2,0,0.3,0l4-1.1C79.2,64.2,80.2,62.5,79.7,60.8z"/><path class="st1" d="M47.1,68.5h16.1c0.6,0,1.1-0.5,1.1-1.1s-0.5-1.1-1.1-1.1H47.1c-0.6,0-1.1,0.5-1.1,1.1S46.5,68.5,47.1,68.5z"/><path class="st1" d="M47.1,73.8h8.6c0.6,0,1.1-0.5,1.1-1.1s-0.5-1.1-1.1-1.1h-8.6c-0.6,0-1.1,0.5-1.1,1.1S46.5,73.8,47.1,73.8z"/><path class="st1" d="M27.3,62.8l4.7,2.8c0.2,0.1,0.4,0.1,0.5,0.1s0.4,0,0.5-0.1l4.7-2.8c0.3-0.2,0.5-0.5,0.5-0.9v-5.5    c0-0.4-0.2-0.7-0.5-0.9l-4.7-2.7c-0.3-0.2-0.7-0.2-1.1,0l-4.7,2.7c-0.3,0.2-0.5,0.5-0.5,0.9v5.5C26.8,62.3,27,62.6,27.3,62.8z     M28.9,57l3.7-2.1l3.7,2.1v4.2l-3.7,2.2l-3.7-2.2V57z"/></g></g></svg>