<?xml version="1.0" ?><svg xmlns="http://www.w3.org/2000/svg" xmlns:xlink="http://www.w3.org/1999/xlink" version="1.1" id="Layer_1" viewBox="0 0 100 100" style="enable-background:new 0 0 100 100;" xml:space="preserve"><style type="text/css">
	.st0{fill:#FFCACA;}
	.st1{fill:#333333;}
</style><g><circle class="st0" cx="33.2" cy="33.2" r="16.8"/><g><path class="st1" d="M34.7,34.5c-0.4-0.6-1.1-0.7-1.7-0.3c-0.8,0.5-1.8,0.7-2.8,0.6c-1.1-0.1-2-0.5-2.8-1.1    c-0.8-0.7-1.4-1.6-1.5-2.6c-0.1-0.3-0.1-0.6-0.1-1c0.4,0.3,1,0.3,1.4,0c0.5-0.4,0.6-1.1,0.3-1.7l-1.3-1.8    c-0.4-0.5-1.1-0.7-1.7-0.3l-1.8,1.3c-0.5,0.4-0.6,1.1-0.3,1.7c0.2,0.3,0.6,0.5,1,0.5c0,0,0,0,0,0c0,0.6,0,1.1,0.1,1.7    c0.3,1.5,1.1,2.8,2.3,3.9c1.1,1,2.6,1.6,4.1,1.7c0.2,0,0.5,0,0.7,0c1.3,0,2.6-0.4,3.7-1.1C35,35.8,35.1,35,34.7,34.5z"/><path class="st1" d="M28.2,24.7c0.8-0.5,1.8-0.7,2.8-0.6c1.1,0.1,2,0.5,2.8,1.1c0.8,0.7,1.4,1.6,1.5,2.6c0.1,0.4,0.1,0.7,0.1,1.1    c-0.4-0.3-1-0.3-1.4,0c-0.5,0.4-0.6,1.1-0.3,1.7l1.3,1.8c0.2,0.3,0.6,0.5,1,0.5c0.2,0,0.5-0.1,0.7-0.2l1.8-1.3    c0.5-0.4,0.6-1.1,0.3-1.7c-0.2-0.3-0.6-0.5-1-0.5c0,0,0,0,0,0c0-0.6,0-1.2-0.1-1.8c-0.3-1.5-1.1-2.8-2.3-3.9    c-1.1-1-2.6-1.6-4.1-1.7c-1.6-0.2-3.1,0.2-4.4,1c-0.6,0.4-0.7,1.1-0.3,1.7C26.9,24.9,27.6,25.1,28.2,24.7z"/><path class="st1" d="M83.5,56.4C83.5,56.4,83.5,56.4,83.5,56.4C83.5,56.4,83.5,56.4,83.5,56.4c0-0.1,0-0.2,0-0.3    c0-0.2,0-0.4,0-0.6c0-0.1,0-0.1,0-0.2c0,0,0,0,0,0c0-0.2,0-0.3,0-0.5c0,0,0,0,0,0c0-0.4-0.1-0.7-0.1-1.1c0-0.1,0-0.2-0.1-0.3    l0-0.1c0-0.2-0.1-0.3-0.1-0.4c0-0.2-0.1-0.4-0.1-0.5c0,0,0,0,0,0c0-0.2-0.1-0.5-0.2-0.7c0-0.1-0.1-0.3-0.1-0.4    c-0.1-0.4-0.2-0.7-0.3-1.1c0,0,0-0.1,0-0.1c-0.1-0.3-0.2-0.7-0.3-0.9c0,0,0,0,0,0c0,0,0,0,0,0c0-0.1-0.1-0.2-0.1-0.3    c0-0.1-0.1-0.2-0.1-0.2c-0.1-0.1-0.1-0.3-0.2-0.4c0-0.1-0.1-0.2-0.2-0.4c0-0.1-0.1-0.2-0.1-0.3l-0.1-0.1c0,0,0,0,0,0c0,0,0,0,0,0    l0,0c0,0,0,0,0-0.1c-0.2-0.3-0.3-0.7-0.5-1l-0.1-0.2c0,0,0,0,0,0c0,0,0,0,0,0l0,0c-0.5-1-1.1-1.8-1.6-2.7c0.7-1.5,1.2-2.9,1.2-4.2    c0-5.6-4.6-10.2-10.2-10.2c-3.1,0-5.9,1.4-7.8,3.6c-1.5-0.3-3-0.4-4.5-0.4c-5,0-9.9,1.4-14.1,4.2c0,0,0,0,0,0c0,0,0,0,0,0    c0,0,0,0,0,0c-0.4,0.3-0.8,0.5-1.1,0.8c-0.1,0.1-0.2,0.2-0.4,0.3c-0.7,0.5-1.4,1.1-2,1.6c-0.4,0.3-0.7,0.7-1,1    c-0.4,0.4-0.7,0.7-1,1c0,0,0,0-0.1,0.1c-0.3,0.4-0.7,0.8-0.9,1.1c-0.3,0.4-0.6,0.8-0.9,1.2c-0.3,0.4-0.5,0.8-0.8,1.2    c0,0,0,0.1,0,0.1c0,0,0,0,0,0c-0.3,0.4-0.5,0.8-0.7,1.3c-0.1,0.2-0.2,0.3-0.2,0.5c-0.4,0.7-0.7,1.4-1,2.2c0,0,0,0,0,0c0,0,0,0,0,0    c-0.2,0.4-0.3,0.9-0.5,1.3c0,0,0,0.1,0,0.2c-0.1,0.4-0.3,0.9-0.4,1.3c0,0,0,0,0,0c-0.1,0.4-0.2,0.9-0.3,1.4c0,0.1,0,0.1,0,0.2    c-0.1,0.4-0.2,0.8-0.2,1.2c0,0.1,0,0.2,0,0.4c-0.1,0.4-0.1,0.8-0.1,1.1c0,0.1,0,0.1,0,0.2c0,0,0,0,0,0c-0.1,0.6-0.1,1.2-0.1,1.9    c0,2.5,0.4,5,1.1,7.3c0,0,0,0,0,0c0,0,0,0,0,0c0,0,0,0,0,0c0,0,0,0,0,0c0.1,0.4,0.2,0.7,0.4,1c0,0.1,0.1,0.3,0.1,0.4    c0.2,0.5,0.4,1,0.6,1.4c0,0,0,0,0,0c0,0,0,0,0,0c0.2,0.5,0.4,0.9,0.6,1.4c0,0,0.1,0.1,0.1,0.1c0.2,0.4,0.5,0.9,0.7,1.3    c0.2,0.3,0.3,0.5,0.5,0.8c0.1,0.2,0.2,0.4,0.3,0.5c0,0,0,0,0,0c0,0,0,0,0,0c0.2,0.4,0.5,0.7,0.7,1c0.4,0.5,0.7,0.9,1.1,1.4    c0,0,0,0,0,0c0.3,0.4,0.7,0.8,1.1,1.2c4.9,5,11.5,7.8,18.5,7.8c8,0,15.4-3.6,20.4-9.9c0,0,0,0,0,0c0,0,0,0,0,0c0,0,0,0,0,0    c0,0,0.1-0.1,0.1-0.1c0.2-0.3,0.5-0.6,0.7-0.9c0.2-0.3,0.4-0.7,0.7-1c0.1-0.1,0.2-0.2,0.2-0.4c0.4-0.7,0.8-1.4,1.1-2    c0.1-0.2,0.2-0.3,0.2-0.5c0-0.1,0.1-0.1,0.1-0.2c0.1-0.2,0.2-0.5,0.3-0.7c0.2-0.4,0.3-0.8,0.5-1.2c0.1-0.4,0.3-0.8,0.4-1.2    c0.1-0.4,0.2-0.8,0.3-1.2c0.2-0.6,0.3-1.3,0.4-1.9c0.1-0.6,0.2-1.3,0.3-1.9c0-0.2,0-0.4,0.1-0.6c0-0.2,0-0.4,0-0.7    c0-0.4,0-0.9,0-1.3C83.6,57.3,83.6,56.8,83.5,56.4z M70,31c4.3,0,7.8,3.5,7.8,7.8c0,1-0.5,2.3-1.2,3.7c0,0,0,0,0,0    c-1.7,3.1-4.7,6.5-6.6,8.6c-2.8-2.9-7.8-8.9-7.8-12.3C62.1,34.6,65.7,31,70,31z M34.5,54.5C34.5,54.5,34.5,54.5,34.5,54.5    c0.8-6.1,4.1-11.6,8.9-15.4c0.1-0.1,0.3-0.2,0.4-0.3c0.3-0.2,0.6-0.4,0.9-0.6h2.9c2.3,0,4.2,1.9,4.2,4.2c0,2.3-1.9,4.2-4.2,4.2    h-3.1c-0.7,0-1.2,0.5-1.2,1.2v2.4c0,2.5-2,4.6-4.6,4.6h-4.2C34.4,54.6,34.4,54.6,34.5,54.5z M40.6,73.8c0,0-0.1-0.1-0.1-0.1    c-0.4-0.5-0.8-1-1.2-1.5c0-0.1-0.1-0.1-0.1-0.2c0,0-0.1-0.1-0.1-0.1c-0.4-0.5-0.8-1-1.1-1.6c-0.1-0.1-0.1-0.2-0.2-0.3    c-0.8-1.3-1.4-2.6-2-4c0,0,0,0,0,0H42c2.2,0,3.9,1.7,3.9,3.9c0,2.2-1.7,3.9-3.9,3.9H40.6z M57.7,81.2c-5.4,0-10.5-1.8-14.6-5.1    c3-0.5,5.2-3.1,5.2-6.2c0-3.5-2.8-6.3-6.3-6.3h-7c-0.5-1.9-0.8-3.8-0.8-5.9c0-0.2,0-0.4,0-0.6h4.4c3.8,0,7-3.1,7-7v-1.2h1.9    c3.6,0,6.6-2.9,6.6-6.6c0-3.1-2.2-5.8-5.2-6.4c2.8-1.1,5.8-1.7,8.8-1.7c1,0,2.1,0.1,3.1,0.2c-0.6,1.3-1,2.8-1,4.4    c0,1.9,1,4.1,2.4,6.3c-4.3,0.6-7.6,4.3-7.6,8.7c0,4.9,4,8.8,8.8,8.8h2.7v3c0,4.6,3.7,8.3,8.3,8.3h0.1    C70.1,78.6,64.1,81.2,57.7,81.2z M80.4,63.6c-0.1,0.4-0.2,0.7-0.3,1.1c-0.1,0.4-0.2,0.7-0.4,1.1c-0.1,0.4-0.3,0.7-0.4,1.1    c-0.1,0.2-0.2,0.5-0.3,0.7c0,0,0,0,0,0c0,0,0,0,0,0c0,0,0,0.1,0,0.1c-0.1,0.1-0.1,0.3-0.2,0.4c-0.3,0.7-0.7,1.4-1.2,2c0,0,0,0,0,0    c-0.3,0.5-0.7,1-1,1.5h-2.1c-3.2,0-5.9-2.6-5.9-5.9v-4.2c0-0.7-0.5-1.2-1.2-1.2h-3.9c-3.5,0-6.4-2.9-6.4-6.4    c0-3.5,2.9-6.4,6.4-6.4h0.4c2.3,3.1,4.9,5.7,5.4,6.2c0.2,0.2,0.5,0.3,0.8,0.3c0.3,0,0.6-0.1,0.8-0.3c0.6-0.6,4.3-4.3,6.9-8.3    c0.3,0.5,0.6,0.9,0.8,1.4l0,0c0,0,0,0,0,0c0.1,0.3,0.3,0.6,0.4,0.8c0.1,0.1,0.1,0.3,0.2,0.4l0,0.1c0.1,0.3,0.2,0.6,0.3,0.8    c0,0,0,0.1,0.1,0.1c0.1,0.1,0.1,0.2,0.1,0.4c0.1,0.3,0.2,0.7,0.3,1l0,0.1c0,0,0,0,0,0.1c0.1,0.3,0.2,0.6,0.3,0.9c0,0,0,0.1,0,0.1    c0,0,0,0.1,0,0.1c0,0.1,0,0.1,0,0.2c0,0,0,0,0,0c0,0,0,0,0,0c0,0,0,0.1,0,0.1c0,0,0,0,0,0.1c0,0.1,0.1,0.3,0.1,0.4    c0.1,0.4,0.2,0.8,0.2,1.3c0.1,0.3,0.1,0.6,0.1,1c0,0,0,0,0,0.1c0,0,0,0.1,0,0.1c0,0.1,0,0.2,0,0.3c0,0,0,0,0,0c0,0,0,0.1,0,0.1    c0,0.3,0.1,0.6,0.1,0.9c0,0.4,0,0.8,0,1.2c0,0.4,0,0.8,0,1.3c0,0.2,0,0.3,0,0.6c0,0,0,0,0,0c0,0.2,0,0.3-0.1,0.5    C80.9,61.2,80.7,62.4,80.4,63.6z"/><path class="st1" d="M53.4,62.7c-2,0-3.6,1.6-3.6,3.6s1.6,3.6,3.6,3.6c2,0,3.6-1.6,3.6-3.6S55.4,62.7,53.4,62.7z M53.4,67.4    c-0.6,0-1.2-0.5-1.2-1.2c0-0.6,0.5-1.2,1.2-1.2c0.6,0,1.2,0.5,1.2,1.2C54.6,66.9,54,67.4,53.4,67.4z"/><path class="st1" d="M70,43.5c2.5,0,4.6-2.1,4.6-4.6s-2.1-4.6-4.6-4.6c-2.5,0-4.6,2.1-4.6,4.6S67.5,43.5,70,43.5z M70,36.7    c1.2,0,2.2,1,2.2,2.2c0,1.2-1,2.2-2.2,2.2c-1.2,0-2.2-1-2.2-2.2C67.8,37.7,68.8,36.7,70,36.7z"/></g></g></svg>